<svg xmlns="http://www.w3.org/2000/svg" width="24" height="24" fill="none" viewBox="0 0 24 24"><path fill="#00ff9a" fill-rule="evenodd" d="M7.781 21.844v1.406h8.438v-1.406h-1.407V19.03h1.407v-1.406h-2.813v1.406h-2.812v-1.406H7.78v1.406h1.407v2.813H7.78zm5.625 0h-2.812v-1.407h2.812z" clip-rule="evenodd"/><path fill="#00ff9a" d="M17.625 20.438h-1.406v1.406h1.406v-1.407zm1.406-4.219H16.22v1.406h1.406v2.813h1.406v-4.22zm-5.625-11.25V7.78H12v1.407h4.219V12h-1.407v1.406h-1.406v1.406H12v1.407h-1.406v1.406h2.812v-1.406h2.813v-1.407h1.406V6.376h-1.406V4.969z"/><path fill="#00ff9a" d="M10.594 4.969H7.78v1.406H6.375v8.438h1.406v1.406h2.813v-2.813H12V12H7.781V9.187h1.407V7.782h1.406V6.375H12V4.969h1.406V3.562h-2.812zM4.969 20.438h1.406v-2.813h1.406v-1.406H4.97z"/><path fill="#00ff9a" d="M7.781 21.844v-1.407H6.375v1.407zM3.563 6.375H2.155v1.406h1.406v2.813H2.157V12h1.406v4.219H4.97V4.969H3.562v1.406z"/><path fill="#00ff9a" d="M2.156 2.156h1.406V.75H.75v9.844h1.406zm5.625 2.813V3.562H4.97V4.97zM3.563 2.156v1.406h1.406V2.157H3.562z"/><path fill="#00ff9a" d="M10.594 2.156H7.78v1.406h2.813zM13.406.75h-2.812v1.406h2.812zm2.813 2.813V2.155h-2.813v1.406h2.813zm2.812 1.406V3.562H16.22V4.97h2.812zm1.407-1.406V2.155H19.03v1.406h1.407z"/><path fill="#00ff9a" d="M23.25.75h-2.813v1.406h1.407v4.219h-1.407V4.969h-1.406v11.25h1.407V12h1.406v-1.406h-1.407V7.78h1.407v2.813h1.406z"/></svg>